<svg width="18" height="8" viewBox="0 0 18 8" fill="none" xmlns="http://www.w3.org/2000/svg">
<path d="M9.00002 -0.000121266C9.19945 -0.000455511 9.39372 0.0614475 9.55427 0.176482L17.1228 5.61045C17.3216 5.75336 17.454 5.96724 17.4907 6.20502C17.5273 6.4428 17.4654 6.68501 17.3184 6.87837C17.1714 7.07173 16.9514 7.20039 16.7068 7.23606C16.4623 7.27173 16.2131 7.21147 16.0143 7.06856L9.00002 2.03761L1.98577 7.06856C1.78689 7.21147 1.53777 7.27173 1.2932 7.23606C1.04863 7.20039 0.828657 7.07173 0.681662 6.87837C0.534667 6.68501 0.472695 6.4428 0.509379 6.20502C0.546065 5.96723 0.678402 5.75336 0.87728 5.61044L8.44577 0.176482C8.60631 0.0614474 8.80059 -0.000455546 9.00002 -0.000121266Z" fill="#FF3D00"/>
</svg>
